<svg xmlns="http://www.w3.org/2000/svg" xmlns:xlink="http://www.w3.org/1999/xlink" width="378" height="11" viewBox="0 0 378 11"><defs><style>.a{fill:#fff;}.b{clip-path:url(#a);}.c{fill:#eaebf3;}.d{fill:#434343;opacity:0.053;}.e{filter:url(#d);}.f{filter:url(#b);}</style><clipPath id="a"><rect class="a" width="378" height="11" transform="translate(0.2 -0.478)"/></clipPath><filter id="b" x="-4.2" y="2.812" width="497.74" height="11.524" filterUnits="userSpaceOnUse"><feOffset dx="-1" dy="-1" input="SourceAlpha"/><feGaussianBlur stdDeviation="1" result="c"/><feFlood flood-color="#fff" flood-opacity="0.902"/><feComposite operator="in" in2="c"/><feComposite in="SourceGraphic"/></filter><filter id="d" x="-115.679" y="-2.756" width="497.74" height="11.524" filterUnits="userSpaceOnUse"><feOffset dx="1" dy="1" input="SourceAlpha"/><feGaussianBlur stdDeviation="1" result="e"/><feFlood flood-opacity="0.102"/><feComposite operator="in" in2="e"/><feComposite in="SourceGraphic"/></filter></defs><g transform="translate(-0.2 0.478)"><g class="b" transform="translate(0 0)"><g transform="translate(-113.479 -1.235)"><g class="f" transform="matrix(1, 0, 0, 1, 113.68, 0.76)"><path class="c" d="M378.262,5.524V0H491.74V5.524ZM0,5.524V4.25H378.262V5.524Z" transform="translate(-0.2 6.81)"/></g><g class="e" transform="matrix(1, 0, 0, 1, 113.68, 0.76)"><path class="c" d="M378.262,5.524V0H491.74V5.524ZM0,5.524V4.25H378.262V5.524Z" transform="translate(378.06 4.77) rotate(180)"/></g></g></g><rect class="d" width="378" height="11" transform="translate(0.2 -0.478)"/></g></svg>