<svg xmlns="http://www.w3.org/2000/svg" width="382.735" height="307" viewBox="0 0 382.735 307"><defs><style>.a{fill:#f3f0f0;}.a,.b,.c,.d,.e,.f{stroke:#7d8991;stroke-miterlimit:10;}.b{fill:#c9e4dc;}.c{fill:#fff;}.d{fill:#77c3cd;}.e{fill:#9ccb49;}.f{fill:none;}</style></defs><g transform="translate(0.497 0.5)"><path class="a" d="M239.887,4224.2c19.177-.665,67.265-5.254,105.25-33.29,55.351-40.853,65.6-62.75,65.6-62.75s-.214-9.852,1.459-14.858,1.348-12.294,4.447-11.259,1.4,7.446.68,9.591a1.456,1.456,0,0,0,.592,1.714,3.029,3.029,0,0,0,4.333-.8,38.182,38.182,0,0,0,3.913-8.853c3.348-10.011,7.124-18.7,8.4-16.159s-5.43,19.764-6.625,23.342,8.04-13.312,12.178-20.143,5.535-1.993,2.99,1.663-11.772,20.437-10.462,20.874,12.557-18.319,15.772-17.244-.853,3.514-2.709,6.425-10.314,10.862-8.938,13.621c0,0,12.919-9.133,12.589-7.145-.165.988-11.937,13.139-17.368,17.736-12.772,10.815-67.327,85.092-88.915,95.792-21.045,10.432-76.289,46.739-98.161,40.9C230.611,4247.13,233.923,4242.035,239.887,4224.2Z" transform="translate(-185.242 -4029.719)"/><g transform="translate(179.346)"><path class="b" d="M666.952,4051.781H850.609a9.241,9.241,0,0,0,9.214-9.214l-.307-116.706a9.241,9.241,0,0,0-9.214-9.213H666.645a9.241,9.241,0,0,0-9.214,9.213l.307,116.706A9.241,9.241,0,0,0,666.952,4051.781Z" transform="translate(-657.431 -3916.648)"/><g transform="translate(17.178 21.498)"><g transform="translate(99.199)"><circle class="c" cx="34.397" cy="34.397" r="34.397"/><rect class="d" width="36.459" height="37.874" transform="translate(15.684 24.99)"/><path class="c" d="M1100.541,4154.814c.93-2.773.824-9.225.824-9.225h9.99s-.212,6.444.7,9.219l12.778,4.99s.061.022.163.07a34.408,34.408,0,0,1-37.737.135,2.966,2.966,0,0,1,.519-.2Z" transform="translate(-1071.628 -4096.775)"/><path class="d" d="M1183.893,4104.231l8.067-3.33-.3-40.032-7.77-.482Z" transform="translate(-1138.584 -4037.741)"/><path class="c" d="M1094.536,4036.1a1.691,1.691,0,0,1,1.477.589c-.161-2.909-.178-5.842-.083-8.628a30.552,30.552,0,0,1,1.272-8.435s4.383-4.8,13.009-5.066c8.619.452,12.985,5.419,12.985,5.42,1.6,5.144,1.41,10.891.814,16.454a1.507,1.507,0,0,1,1.183-.333c1.289.243,2,2.5,1.592,5.04s-1.784,4.4-3.071,4.157a1.449,1.449,0,0,1-.793-.474c-.966,5.254-4.641,8.983-9.22,11.614a6.763,6.763,0,0,1-7.881-.084c-4.343-2.945-7.735-6.538-8.9-11.667a1.524,1.524,0,0,1-.909.611c-1.287.244-2.663-1.616-3.072-4.157S1093.246,4036.347,1094.536,4036.1Z" transform="translate(-1075.487 -4005.991)"/><path class="d" d="M1087.418,4023.7s-.757-19.365,14.322-22.115c0,0,10.693-1.708,14.7,4.925l-4.011,10.154s.072,3.628-16.686,7.2c0,0-3.431.876-3.643,7.277A11.971,11.971,0,0,0,1087.418,4023.7Z" transform="translate(-1071.734 -3996.861)"/><path class="d" d="M1168.641,4024.205s7.187.995,7.151,14.162c0,0,.4-4.233,2.886-3.66,0,0,9.256-18.025-7.073-22.956Z" transform="translate(-1128.017 -4004.042)"/><path class="e" d="M1108.707,4181.474c5.748,0,5.565-5.849,5.565-5.849l12.447,4.859a4.734,4.734,0,0,0-1.531,1.43,34.441,34.441,0,0,1-32.853.581,7.329,7.329,0,0,0-1.9-2.065l12.035-4.7S1102.3,4181.474,1108.707,4181.474Z" transform="translate(-1073.831 -4117.586)"/></g><path class="c" d="M716.8,4005.979h74.216a3.441,3.441,0,0,0,3.432-3.431v-12.469a3.442,3.442,0,0,0-3.432-3.431H716.8a3.442,3.442,0,0,0-3.432,3.431v12.469A3.441,3.441,0,0,0,716.8,4005.979Z" transform="translate(-713.365 -3986.648)"/><path class="c" d="M716.8,4123.48h74.216a3.442,3.442,0,0,0,3.432-3.432V4107.58a3.442,3.442,0,0,0-3.432-3.431H716.8a3.442,3.442,0,0,0-3.432,3.431v12.469A3.442,3.442,0,0,0,716.8,4123.48Z" transform="translate(-713.365 -4068.062)"/><path class="c" d="M716.8,4240.979h74.216a3.442,3.442,0,0,0,3.432-3.431v-12.469a3.442,3.442,0,0,0-3.432-3.431H716.8a3.442,3.442,0,0,0-3.432,3.431v12.469A3.442,3.442,0,0,0,716.8,4240.979Z" transform="translate(-713.365 -4149.476)"/><path class="f" d="M1100.46,4234.4c-4.434,0-4.434,5.048-8.867,5.048s-4.434-5.048-8.867-5.048-4.433,5.048-8.867,5.048-4.433-5.048-8.867-5.048-4.434,5.048-8.868,5.048-4.433-5.048-8.866-5.048-4.433,5.048-8.866,5.048-4.434-5.048-8.868-5.048" transform="translate(-932.425 -4158.313)"/><path class="f" d="M1100.46,4268.4c-4.434,0-4.434,5.048-8.867,5.048s-4.434-5.048-8.867-5.048-4.433,5.048-8.867,5.048-4.433-5.048-8.867-5.048-4.434,5.048-8.868,5.048-4.433-5.048-8.866-5.048-4.433,5.048-8.866,5.048-4.434-5.048-8.868-5.048" transform="translate(-932.425 -4181.871)"/></g></g><path class="e" d="M304.627,4634.836H229.821c.646-2.555,1.34-5.382,2.084-8.518,6.349-26.75,3.173-99.75,3.173-99.75,8.163,2.719,64.725-7.78,64.725-7.78s29.586,54.936,23.237,71.258C320.206,4597.333,312.4,4616.192,304.627,4634.836Z" transform="translate(-181.802 -4328.836)"/><circle class="f" cx="7.678" cy="7.678" r="7.678" transform="translate(225.282 155.818)"/><circle class="f" cx="3.839" cy="3.839" r="3.839" transform="translate(64.659 64.911)"/><g transform="translate(166.591 212.789)"><line class="f" y1="8.691" transform="translate(10.749 0)"/><line class="f" y1="8.691" transform="translate(10.749 12.808)"/><line class="f" x2="8.691" transform="translate(12.808 10.749)"/><line class="f" x2="8.691" transform="translate(0 10.749)"/></g><g transform="translate(114.073 46.637)"><line class="f" y1="8.691" transform="translate(10.749 0)"/><line class="f" y1="8.691" transform="translate(10.749 12.808)"/><line class="f" x2="8.691" transform="translate(12.808 10.749)"/><line class="f" x2="8.691" transform="translate(0 10.749)"/></g><path class="d" d="M292.027,4231.045s-21.065-1.122-28.368,18.541-6.428,60.39,3.51,71.905,8.286,41.011,16.994,49.719,30.9,12.64,30.9-7.866c0,0-10.815,2.5-13.552-10.267,0,0,15.519,9.914,23.1-5.218s-8.708-16.537-8.708-16.537,7.866,10.393-1.686,8.146-15.078-10.852-15.078-21.856,16.2-3.985,14.517-24.208S299.144,4230.35,292.027,4231.045Z" transform="translate(-201.911 -4129.457)"/><path class="a" d="M360.44,4404.951l11.622,37s23.541,26.517,8.105,32.727-44.047-30.6-44.047-30.6l5.47-47.812Z" transform="translate(-255.454 -4243.944)"/><path class="d" d="M142,4291.952l-6.785-.515s-16.53,26.183-36.406,32.3-23.7,26.146-14.143,38.872-13,10.051-11.084,23.812,19.694,46.589,40.062,13.377S142,4291.952,142,4291.952Z" transform="translate(-73.467 -4171.309)"/><path class="d" d="M366.378,4240.042l30.825,17.013s6.4.144,6.4-6.98-7.852-14.1-15.848-18.175-18.026-5.828-18.026-5.828Z" transform="translate(-276.42 -4126.02)"/><path class="c" d="M355.868,4246.466s11.923,2.037,15.12,7.706,4.074,19.193,7.27,22.393a14.575,14.575,0,0,0,5.985,3.9s.849,1.478-2.35,3.078-2.582,4.357-.6,4.357,1.188,3.7-.341,4.14a2.28,2.28,0,0,1,1.361,2.569c-.362,1.889-2.037,3.029-1.021,5.358s.357,9.891-15.252,6.838c0,0-23.195-5.451-24.573-12s-11.7-30.324-2.907-39.117S355.868,4246.466,355.868,4246.466Z" transform="translate(-254.715 -4140.15)"/><path class="c" d="M343.733,4320.271s-4.211-9.16-6.173-7.2-2.941,15.484,3.983,16.792S343.733,4320.271,343.733,4320.271Z" transform="translate(-255.454 -4186.11)"/><path class="c" d="M266.261,4131.828c17.978-6.717,59.626-20.976,86.76-59.609,39.542-56.3,42.319-80.313,42.319-80.313s-3.329-9.276-3.329-14.554-2.619-12.088.647-12.088,3.686,6.618,3.686,8.88a1.458,1.458,0,0,0,1.1,1.438,3.032,3.032,0,0,0,3.86-2.132,38.152,38.152,0,0,0,.9-9.636c0-10.555.828-20,2.837-17.987s1.118,20.469,1.118,24.239,3.405-15.174,5.166-22.966,4.619-3.644,3.361.629-4.686,23.113-3.3,23.113,6.1-21.355,9.492-21.355.3,3.6-.534,6.955-6.337,13.57-4.157,15.751c0,0,9.355-12.759,9.673-10.768.158.991-7.156,16.247-10.847,22.327-8.685,14.306-36.872,102.052-53.952,119.047-16.651,16.567-57.529,68.515-80.128,69.908C262.234,4161.858,266.261,4150.634,266.261,4131.828Z" transform="translate(-206.797 -3929.692)"/><path class="d" d="M139.919,4366.089c0-17.372,10.133-9.169,13.995-28.957s-7.24-10.747-4.345-31.192,36.2-69.982,36.2-69.982c6.313-10.291,20.233-13.157,24.46-13.8,1.841-.692,6.91-1.7,17.848,1.412,14.54,4.146,18.015,19.878,18.015,19.878s-9.133-10.8-15.023-10.8c-2.435,0-6.182.382-9.892.678,2.154,4.218,3.423,9.036,2.029,13.389-3.489,10.908-11.775,6.036-17.01,8.943-2.467,1.371-2.384,5.083-1.7,9.194l1.108,1.711s10.423,4,2.011,26.658c-10.26,27.637-23.738,32.706-10.425,46.018s-2.253,74.15-50.029,61.12c0,0,25.777-2.728,20.128-18.013S139.919,4383.462,139.919,4366.089Z" transform="translate(-119.51 -4122.801)"/></g></svg>